<svg width="49" height="49" viewBox="0 0 49 49" fill="none" xmlns="http://www.w3.org/2000/svg">
<g clip-path="url(#clip0_8_6307)">
<path d="M8.14406 36.182C8.45971 36.4946 8.70159 36.872 8.85245 37.2874C9.00331 37.7027 9.05945 38.1458 9.01685 38.585C8.80312 40.6177 8.39792 42.6264 7.80649 44.585C12.0488 43.616 14.6398 42.494 15.8167 41.906C16.4843 41.5725 17.253 41.4934 17.9759 41.684C20.0482 42.229 22.1841 42.5033 24.3288 42.5C36.481 42.5 45.6164 34.079 45.6164 24.5C45.6164 14.924 36.481 6.5 24.3288 6.5C12.1765 6.5 3.0411 14.924 3.0411 24.5C3.0411 28.904 4.91745 32.99 8.14406 36.182ZM6.64479 47.897C5.92426 48.0379 5.2014 48.1669 4.47649 48.284C3.86827 48.38 3.40603 47.756 3.64627 47.198C3.9163 46.5698 4.16379 45.9324 4.3883 45.287L4.39742 45.257C5.15162 43.097 5.76592 40.613 5.99096 38.3C2.25953 34.61 0 29.78 0 24.5C0 12.902 10.8932 3.5 24.3288 3.5C37.7643 3.5 48.6575 12.902 48.6575 24.5C48.6575 36.098 37.7643 45.5 24.3288 45.5C21.9192 45.5032 19.5195 45.1946 17.1913 44.582C15.6099 45.371 12.207 46.808 6.64479 47.897Z" fill="white"/>
<path d="M21.4884 20.7799C20.896 19.8699 20.0202 19.1741 18.9926 18.7971C17.965 18.4202 16.8411 18.3824 15.7899 18.6895C14.7387 18.9966 13.8169 19.632 13.1631 20.5002C12.5094 21.3684 12.1589 22.4224 12.1644 23.5039C12.1649 24.3995 12.4093 25.2786 12.8719 26.0492C13.3345 26.8198 13.9984 27.4537 14.7942 27.8847C15.59 28.3157 16.4886 28.528 17.396 28.4994C18.3034 28.4707 19.1863 28.2023 19.9526 27.7219C19.5542 28.8889 18.8122 30.1339 17.5897 31.3819C17.3558 31.6206 17.2276 31.9412 17.2333 32.2732C17.2361 32.4375 17.2717 32.5997 17.3381 32.7505C17.4045 32.9013 17.5003 33.0377 17.6201 33.1519C17.7399 33.2662 17.8814 33.356 18.0364 33.4164C18.1914 33.4767 18.3569 33.5063 18.5235 33.5035C18.86 33.4979 19.1804 33.3606 19.4143 33.1219C23.9334 28.5019 23.3465 23.4799 21.4884 20.7859V20.7799ZM33.6528 20.7799C33.0604 19.8699 32.1846 19.1741 31.157 18.7971C30.1294 18.4202 29.0055 18.3824 27.9543 18.6895C26.9031 18.9966 25.9813 19.632 25.3275 20.5002C24.6737 21.3684 24.3233 22.4224 24.3288 23.5039C24.3293 24.3995 24.5736 25.2786 25.0362 26.0492C25.4988 26.8198 26.1627 27.4537 26.9586 27.8847C27.7544 28.3157 28.6529 28.528 29.5604 28.4994C30.4678 28.4707 31.3507 28.2023 32.117 27.7219C31.7186 28.8889 30.9766 30.1339 29.7541 31.3819C29.6383 31.5001 29.5472 31.6397 29.486 31.7926C29.4249 31.9455 29.3948 32.1088 29.3977 32.2732C29.4005 32.4375 29.4361 32.5997 29.5025 32.7505C29.5688 32.9013 29.6647 33.0377 29.7845 33.1519C29.9043 33.2662 30.0457 33.356 30.2007 33.4164C30.3558 33.4767 30.5213 33.5063 30.6879 33.5035C30.8545 33.5007 31.0189 33.4656 31.1718 33.4001C31.3246 33.3347 31.4629 33.2401 31.5787 33.1219C36.0978 28.5019 35.5109 23.4799 33.6528 20.7859V20.7799Z" fill="white"/>
</g>
<defs>
<clipPath id="clip0_8_6307">
<rect width="48.6575" height="48" fill="white" transform="translate(0 0.5)"/>
</clipPath>
</defs>
</svg>
