<svg width="576" height="45" viewBox="0 0 576 45" fill="none" xmlns="http://www.w3.org/2000/svg">
<path d="M5.52341 4.89117V16.2662H4.03903V4.89117H5.52341ZM9.17966 4.89117V6.12555H0.390594V4.89117H9.17966ZM11.5 9.14117V16.2662H10.0547V7.81305H11.4609L11.5 9.14117ZM14.1406 7.76617L14.1328 9.10992C14.013 9.08388 13.8984 9.06826 13.789 9.06305C13.6849 9.05263 13.5651 9.04742 13.4297 9.04742C13.0963 9.04742 12.8021 9.09951 12.5468 9.20367C12.2916 9.30784 12.0755 9.45367 11.8984 9.64117C11.7213 9.82867 11.5807 10.0526 11.4765 10.313C11.3776 10.5683 11.3125 10.8495 11.2812 11.1568L10.875 11.3912C10.875 10.8808 10.9244 10.4016 11.0234 9.95367C11.1276 9.50576 11.2864 9.10992 11.5 8.76617C11.7135 8.41722 11.9843 8.14638 12.3125 7.95367C12.6458 7.75576 13.0416 7.6568 13.5 7.6568C13.6041 7.6568 13.7239 7.66982 13.8593 7.69586C13.9948 7.7167 14.0885 7.74013 14.1406 7.76617ZM20.6484 14.313V7.81305H22.1015V16.2662H20.7187L20.6484 14.313ZM20.9218 12.5318L21.5234 12.5162C21.5234 13.0787 21.4635 13.5995 21.3437 14.0787C21.2291 14.5526 21.0416 14.9641 20.7812 15.313C20.5208 15.662 20.1797 15.9354 19.7578 16.1334C19.3359 16.3261 18.8229 16.4224 18.2187 16.4224C17.8073 16.4224 17.4297 16.3625 17.0859 16.2427C16.7474 16.1229 16.4557 15.938 16.2109 15.688C15.9661 15.438 15.776 15.1125 15.6406 14.7115C15.5104 14.3104 15.4453 13.8287 15.4453 13.2662V7.81305H16.8906V13.2818C16.8906 13.662 16.9323 13.9771 17.0156 14.2271C17.1041 14.4719 17.2213 14.6672 17.3672 14.813C17.5182 14.9537 17.6849 15.0526 17.8672 15.1099C18.0547 15.1672 18.2474 15.1959 18.4453 15.1959C19.0599 15.1959 19.5468 15.0787 19.9062 14.8443C20.2656 14.6047 20.5234 14.2844 20.6797 13.8834C20.8411 13.4771 20.9218 13.0266 20.9218 12.5318ZM29.2265 14.024C29.2265 13.8157 29.1797 13.6229 29.0859 13.4459C28.9974 13.2636 28.8125 13.0995 28.5312 12.9537C28.2552 12.8026 27.8385 12.6724 27.2812 12.563C26.8125 12.4641 26.388 12.3469 26.0078 12.2115C25.6328 12.0761 25.3125 11.912 25.0468 11.7193C24.7864 11.5266 24.5859 11.3 24.4453 11.0396C24.3047 10.7792 24.2343 10.4745 24.2343 10.1255C24.2343 9.79222 24.3073 9.47711 24.4531 9.18024C24.6041 8.88336 24.8151 8.62034 25.0859 8.39117C25.3619 8.16201 25.6927 7.98232 26.0781 7.85211C26.4635 7.7219 26.8932 7.6568 27.3672 7.6568C28.0442 7.6568 28.6224 7.77659 29.1015 8.01617C29.5807 8.25576 29.9479 8.57607 30.2031 8.97711C30.4583 9.37295 30.5859 9.81305 30.5859 10.2974H29.1406C29.1406 10.063 29.0703 9.83649 28.9297 9.61774C28.7942 9.39378 28.5937 9.20888 28.3281 9.06305C28.0677 8.91722 27.7474 8.8443 27.3672 8.8443C26.9661 8.8443 26.6406 8.9068 26.3906 9.0318C26.1458 9.15159 25.9661 9.30524 25.8515 9.49274C25.7422 9.68024 25.6875 9.87815 25.6875 10.0865C25.6875 10.2427 25.7135 10.3834 25.7656 10.5084C25.8229 10.6282 25.9218 10.7401 26.0625 10.8443C26.2031 10.9433 26.401 11.037 26.6562 11.1255C26.9114 11.2141 27.2369 11.3026 27.6328 11.3912C28.3255 11.5474 28.8958 11.7349 29.3437 11.9537C29.7916 12.1724 30.125 12.4407 30.3437 12.7584C30.5625 13.0761 30.6718 13.4615 30.6718 13.9146C30.6718 14.2844 30.5937 14.6229 30.4375 14.9302C30.2864 15.2375 30.0651 15.5032 29.7734 15.7271C29.4869 15.9459 29.1432 16.1177 28.7422 16.2427C28.3463 16.3625 27.901 16.4224 27.4062 16.4224C26.6614 16.4224 26.0312 16.2896 25.5156 16.024C25 15.7584 24.6093 15.4146 24.3437 14.9927C24.0781 14.5709 23.9453 14.1255 23.9453 13.6568H25.3984C25.4192 14.0526 25.5338 14.3677 25.7422 14.6021C25.9505 14.8313 26.2057 14.9953 26.5078 15.0943C26.8099 15.188 27.1093 15.2349 27.4062 15.2349C27.8021 15.2349 28.1328 15.1828 28.3984 15.0787C28.6692 14.9745 28.875 14.8313 29.0156 14.649C29.1562 14.4667 29.2265 14.2584 29.2265 14.024ZM36.1093 7.81305V8.92242H31.539V7.81305H36.1093ZM33.0859 5.75836H34.5312V14.1724C34.5312 14.4589 34.5755 14.675 34.664 14.8209C34.7526 14.9667 34.8672 15.063 35.0078 15.1099C35.1484 15.1568 35.2994 15.1802 35.4609 15.1802C35.5807 15.1802 35.7057 15.1698 35.8359 15.149C35.9713 15.1229 36.0729 15.1021 36.1406 15.0865L36.1484 16.2662C36.0338 16.3026 35.8828 16.3365 35.6953 16.3677C35.513 16.4042 35.2916 16.4224 35.0312 16.4224C34.6771 16.4224 34.3515 16.3521 34.0547 16.2115C33.7578 16.0709 33.5208 15.8365 33.3437 15.5084C33.1718 15.175 33.0859 14.7271 33.0859 14.1646V5.75836ZM41.3125 16.4224C40.7239 16.4224 40.1901 16.3235 39.7109 16.1255C39.2369 15.9224 38.8281 15.6386 38.4843 15.274C38.1458 14.9094 37.8854 14.4771 37.7031 13.9771C37.5208 13.4771 37.4297 12.9302 37.4297 12.3365V12.0084C37.4297 11.3209 37.5312 10.7089 37.7343 10.1724C37.9375 9.63076 38.2135 9.17242 38.5625 8.79742C38.9114 8.42242 39.3073 8.13857 39.75 7.94586C40.1927 7.75315 40.651 7.6568 41.125 7.6568C41.7291 7.6568 42.25 7.76097 42.6875 7.9693C43.1302 8.17763 43.4922 8.4693 43.7734 8.8443C44.0547 9.21409 44.263 9.65159 44.3984 10.1568C44.5338 10.6568 44.6015 11.2037 44.6015 11.7974V12.4459H38.289V11.2662H43.1562V11.1568C43.1354 10.7818 43.0573 10.4172 42.9218 10.063C42.7916 9.70888 42.5833 9.41722 42.2968 9.18805C42.0104 8.95888 41.6198 8.8443 41.125 8.8443C40.7968 8.8443 40.4948 8.91461 40.2187 9.05524C39.9427 9.19065 39.7057 9.39378 39.5078 9.66461C39.3099 9.93545 39.1562 10.2662 39.0468 10.6568C38.9375 11.0474 38.8828 11.4979 38.8828 12.0084V12.3365C38.8828 12.7375 38.9375 13.1151 39.0468 13.4693C39.1614 13.8183 39.3255 14.1255 39.539 14.3912C39.7578 14.6568 40.0208 14.8651 40.3281 15.0162C40.6406 15.1672 40.9948 15.2427 41.3906 15.2427C41.901 15.2427 42.3333 15.1386 42.6875 14.9302C43.0416 14.7219 43.3515 14.4433 43.6172 14.0943L44.4922 14.7896C44.3099 15.0657 44.0781 15.3287 43.7968 15.5787C43.5156 15.8287 43.1692 16.0318 42.7578 16.188C42.3515 16.3443 41.8698 16.4224 41.3125 16.4224ZM51.6172 14.6255V4.26617H53.0703V16.2662H51.7422L51.6172 14.6255ZM45.9297 12.1334V11.9693C45.9297 11.3235 46.0078 10.7375 46.164 10.2115C46.3255 9.68024 46.5521 9.22451 46.8437 8.8443C47.1406 8.46409 47.4922 8.17242 47.8984 7.9693C48.3099 7.76097 48.7682 7.6568 49.2734 7.6568C49.8047 7.6568 50.2682 7.75055 50.664 7.93805C51.0651 8.12034 51.4036 8.38857 51.6797 8.74274C51.9609 9.0917 52.1823 9.51357 52.3437 10.0084C52.5052 10.5032 52.6172 11.063 52.6797 11.688V12.4068C52.6224 13.0266 52.5104 13.5839 52.3437 14.0787C52.1823 14.5735 51.9609 14.9953 51.6797 15.3443C51.4036 15.6933 51.0651 15.9615 50.664 16.149C50.263 16.3313 49.7942 16.4224 49.2578 16.4224C48.763 16.4224 48.3099 16.3157 47.8984 16.1021C47.4922 15.8886 47.1406 15.5891 46.8437 15.2037C46.5521 14.8183 46.3255 14.3651 46.164 13.8443C46.0078 13.3183 45.9297 12.7479 45.9297 12.1334ZM47.3828 11.9693V12.1334C47.3828 12.5552 47.4244 12.9511 47.5078 13.3209C47.5963 13.6907 47.7317 14.0162 47.914 14.2974C48.0963 14.5787 48.3281 14.8 48.6093 14.9615C48.8906 15.1177 49.2265 15.1959 49.6172 15.1959C50.0963 15.1959 50.4896 15.0943 50.7968 14.8912C51.1093 14.688 51.3593 14.4198 51.5468 14.0865C51.7343 13.7532 51.8802 13.3912 51.9843 13.0005V11.1177C51.9218 10.8313 51.8307 10.5552 51.7109 10.2896C51.5963 10.0188 51.4453 9.7792 51.2578 9.57086C51.0755 9.35732 50.8489 9.18805 50.5781 9.06305C50.3125 8.93805 49.9974 8.87555 49.6328 8.87555C49.2369 8.87555 48.8958 8.95888 48.6093 9.12555C48.3281 9.28701 48.0963 9.51097 47.914 9.79742C47.7317 10.0787 47.5963 10.4068 47.5078 10.7818C47.4244 11.1516 47.3828 11.5474 47.3828 11.9693ZM59.2812 4.26617H60.7343V14.6255L60.6093 16.2662H59.2812V4.26617ZM66.4453 11.9693V12.1334C66.4453 12.7479 66.3724 13.3183 66.2265 13.8443C66.0807 14.3651 65.8672 14.8183 65.5859 15.2037C65.3047 15.5891 64.9609 15.8886 64.5547 16.1021C64.1484 16.3157 63.6823 16.4224 63.1562 16.4224C62.6198 16.4224 62.1484 16.3313 61.7422 16.149C61.3411 15.9615 61.0026 15.6933 60.7265 15.3443C60.4505 14.9953 60.2291 14.5735 60.0625 14.0787C59.901 13.5839 59.789 13.0266 59.7265 12.4068V11.688C59.789 11.063 59.901 10.5032 60.0625 10.0084C60.2291 9.51357 60.4505 9.0917 60.7265 8.74274C61.0026 8.38857 61.3411 8.12034 61.7422 7.93805C62.1432 7.75055 62.6093 7.6568 63.1406 7.6568C63.6718 7.6568 64.1432 7.76097 64.5547 7.9693C64.9661 8.17242 65.3099 8.46409 65.5859 8.8443C65.8672 9.22451 66.0807 9.68024 66.2265 10.2115C66.3724 10.7375 66.4453 11.3235 66.4453 11.9693ZM64.9922 12.1334V11.9693C64.9922 11.5474 64.9531 11.1516 64.875 10.7818C64.7968 10.4068 64.6718 10.0787 64.5 9.79742C64.3281 9.51097 64.1015 9.28701 63.8203 9.12555C63.539 8.95888 63.1927 8.87555 62.7812 8.87555C62.4166 8.87555 62.0989 8.93805 61.8281 9.06305C61.5625 9.18805 61.3359 9.35732 61.1484 9.57086C60.9609 9.7792 60.8073 10.0188 60.6875 10.2896C60.5729 10.5552 60.4869 10.8313 60.4297 11.1177V13.0005C60.513 13.3651 60.6484 13.7167 60.8359 14.0552C61.0286 14.3886 61.2838 14.662 61.6015 14.8755C61.9244 15.0891 62.3229 15.1959 62.7968 15.1959C63.1875 15.1959 63.5208 15.1177 63.7968 14.9615C64.0781 14.8 64.3047 14.5787 64.4765 14.2974C64.6536 14.0162 64.7838 13.6907 64.8672 13.3209C64.9505 12.9511 64.9922 12.5552 64.9922 12.1334ZM70.5547 15.3912L72.9062 7.81305H74.4531L71.0625 17.5709C70.9843 17.7792 70.8802 18.0032 70.75 18.2427C70.625 18.4875 70.4635 18.7193 70.2656 18.938C70.0677 19.1568 69.8281 19.3339 69.5468 19.4693C69.2708 19.6099 68.9401 19.6802 68.5547 19.6802C68.4401 19.6802 68.2942 19.6646 68.1172 19.6334C67.9401 19.6021 67.8151 19.5761 67.7422 19.5552L67.7343 18.3834C67.776 18.3886 67.8411 18.3938 67.9297 18.399C68.0234 18.4094 68.0885 18.4146 68.125 18.4146C68.4531 18.4146 68.7317 18.3703 68.9609 18.2818C69.1901 18.1985 69.3828 18.0552 69.539 17.8521C69.7005 17.6542 69.8385 17.3808 69.9531 17.0318L70.5547 15.3912ZM68.8281 7.81305L71.0234 14.3755L71.3984 15.899L70.3593 16.4302L67.25 7.81305H68.8281ZM2.67184 26.2662V38.2662H1.21872V26.2662H2.67184ZM8.49997 38.4224C7.91143 38.4224 7.37757 38.3235 6.89841 38.1255C6.42445 37.9224 6.01559 37.6386 5.67184 37.274C5.3333 36.9094 5.07289 36.4771 4.89059 35.9771C4.7083 35.4771 4.61716 34.9302 4.61716 34.3365V34.0084C4.61716 33.3209 4.71872 32.7089 4.92184 32.1724C5.12497 31.6308 5.40101 31.1724 5.74997 30.7974C6.09893 30.4224 6.49476 30.1386 6.93747 29.9459C7.38018 29.7532 7.83851 29.6568 8.31247 29.6568C8.91664 29.6568 9.43747 29.761 9.87497 29.9693C10.3177 30.1776 10.6797 30.4693 10.9609 30.8443C11.2422 31.2141 11.4505 31.6516 11.5859 32.1568C11.7213 32.6568 11.789 33.2037 11.789 33.7974V34.4459H5.47653V33.2662H10.3437V33.1568C10.3229 32.7818 10.2448 32.4172 10.1093 32.063C9.97914 31.7089 9.7708 31.4172 9.48434 31.188C9.19789 30.9589 8.80726 30.8443 8.31247 30.8443C7.98434 30.8443 7.68226 30.9146 7.40622 31.0552C7.13018 31.1907 6.8932 31.3938 6.69528 31.6646C6.49737 31.9354 6.34372 32.2662 6.23434 32.6568C6.12497 33.0474 6.07028 33.4979 6.07028 34.0084V34.3365C6.07028 34.7375 6.12497 35.1151 6.23434 35.4693C6.34893 35.8183 6.51299 36.1255 6.72653 36.3912C6.94528 36.6568 7.2083 36.8651 7.51559 37.0162C7.82809 37.1672 8.18226 37.2427 8.57809 37.2427C9.08851 37.2427 9.5208 37.1386 9.87497 36.9302C10.2291 36.7219 10.539 36.4433 10.8047 36.0943L11.6797 36.7896C11.4974 37.0657 11.2656 37.3287 10.9843 37.5787C10.7031 37.8287 10.3567 38.0318 9.94528 38.188C9.53903 38.3443 9.05726 38.4224 8.49997 38.4224ZM18.4609 36.8209V32.4693C18.4609 32.136 18.3932 31.8469 18.2578 31.6021C18.1276 31.3521 17.9297 31.1594 17.664 31.024C17.3984 30.8886 17.0703 30.8209 16.6797 30.8209C16.3151 30.8209 15.9948 30.8834 15.7187 31.0084C15.4479 31.1334 15.2343 31.2974 15.0781 31.5005C14.9271 31.7037 14.8515 31.9224 14.8515 32.1568H13.4062C13.4062 31.8547 13.4843 31.5552 13.6406 31.2584C13.7968 30.9615 14.0208 30.6933 14.3125 30.4537C14.6093 30.2089 14.9635 30.0162 15.375 29.8755C15.7916 29.7297 16.2552 29.6568 16.7656 29.6568C17.3802 29.6568 17.9218 29.761 18.3906 29.9693C18.8646 30.1776 19.2343 30.4927 19.5 30.9146C19.7708 31.3313 19.9062 31.8547 19.9062 32.4849V36.4224C19.9062 36.7037 19.9297 37.0032 19.9765 37.3209C20.0286 37.6386 20.1041 37.912 20.2031 38.1412V38.2662H18.6953C18.6224 38.0995 18.5651 37.8782 18.5234 37.6021C18.4817 37.3209 18.4609 37.0604 18.4609 36.8209ZM18.7109 33.1412L18.7265 34.1568H17.2656C16.8541 34.1568 16.4869 34.1907 16.164 34.2584C15.8411 34.3209 15.5703 34.4172 15.3515 34.5474C15.1328 34.6776 14.9661 34.8417 14.8515 35.0396C14.7369 35.2323 14.6797 35.4589 14.6797 35.7193C14.6797 35.9849 14.7396 36.2271 14.8593 36.4459C14.9791 36.6646 15.1588 36.8391 15.3984 36.9693C15.6432 37.0943 15.9427 37.1568 16.2968 37.1568C16.7396 37.1568 17.1302 37.063 17.4687 36.8755C17.8073 36.688 18.0755 36.4589 18.2734 36.188C18.4765 35.9172 18.5859 35.6542 18.6015 35.399L19.2187 36.0943C19.1823 36.313 19.0833 36.5552 18.9218 36.8209C18.7604 37.0865 18.5442 37.3417 18.2734 37.5865C18.0078 37.8261 17.6901 38.0266 17.3203 38.188C16.9557 38.3443 16.5442 38.4224 16.0859 38.4224C15.513 38.4224 15.0104 38.3104 14.5781 38.0865C14.151 37.8625 13.8177 37.563 13.5781 37.188C13.3437 36.8078 13.2265 36.3834 13.2265 35.9146C13.2265 35.4615 13.3151 35.063 13.4922 34.7193C13.6692 34.3703 13.9244 34.0813 14.2578 33.8521C14.5911 33.6177 14.9922 33.4407 15.4609 33.3209C15.9297 33.2011 16.4531 33.1412 17.0312 33.1412H18.7109ZM27.5078 36.6255V26.2662H28.9609V38.2662H27.6328L27.5078 36.6255ZM21.8203 34.1334V33.9693C21.8203 33.3235 21.8984 32.7375 22.0547 32.2115C22.2161 31.6802 22.4427 31.2245 22.7343 30.8443C23.0312 30.4641 23.3828 30.1724 23.789 29.9693C24.2005 29.761 24.6588 29.6568 25.164 29.6568C25.6953 29.6568 26.1588 29.7505 26.5547 29.938C26.9557 30.1203 27.2942 30.3886 27.5703 30.7427C27.8515 31.0917 28.0729 31.5136 28.2343 32.0084C28.3958 32.5032 28.5078 33.063 28.5703 33.688V34.4068C28.513 35.0266 28.401 35.5839 28.2343 36.0787C28.0729 36.5735 27.8515 36.9953 27.5703 37.3443C27.2942 37.6933 26.9557 37.9615 26.5547 38.149C26.1536 38.3313 25.6849 38.4224 25.1484 38.4224C24.6536 38.4224 24.2005 38.3157 23.789 38.1021C23.3828 37.8886 23.0312 37.5891 22.7343 37.2037C22.4427 36.8183 22.2161 36.3651 22.0547 35.8443C21.8984 35.3183 21.8203 34.7479 21.8203 34.1334ZM23.2734 33.9693V34.1334C23.2734 34.5552 23.3151 34.9511 23.3984 35.3209C23.4869 35.6907 23.6224 36.0162 23.8047 36.2974C23.9869 36.5787 24.2187 36.8 24.5 36.9615C24.7812 37.1177 25.1172 37.1959 25.5078 37.1959C25.9869 37.1959 26.3802 37.0943 26.6875 36.8912C27 36.688 27.25 36.4198 27.4375 36.0865C27.625 35.7532 27.7708 35.3912 27.875 35.0005V33.1177C27.8125 32.8313 27.7213 32.5552 27.6015 32.2896C27.4869 32.0188 27.3359 31.7792 27.1484 31.5709C26.9661 31.3573 26.7396 31.188 26.4687 31.063C26.2031 30.938 25.888 30.8755 25.5234 30.8755C25.1276 30.8755 24.7864 30.9589 24.5 31.1255C24.2187 31.287 23.9869 31.511 23.8047 31.7974C23.6224 32.0787 23.4869 32.4068 23.3984 32.7818C23.3151 33.1516 23.2734 33.5474 23.2734 33.9693ZM32.7812 29.813V38.2662H31.3281V29.813H32.7812ZM31.2187 27.5709C31.2187 27.3365 31.289 27.1386 31.4297 26.9771C31.5755 26.8157 31.789 26.7349 32.0703 26.7349C32.3463 26.7349 32.5573 26.8157 32.7031 26.9771C32.8541 27.1386 32.9297 27.3365 32.9297 27.5709C32.9297 27.7948 32.8541 27.9875 32.7031 28.149C32.5573 28.3052 32.3463 28.3834 32.0703 28.3834C31.789 28.3834 31.5755 28.3052 31.4297 28.149C31.289 27.9875 31.2187 27.7948 31.2187 27.5709ZM36.5468 31.6177V38.2662H35.1015V29.813H36.4687L36.5468 31.6177ZM36.2031 33.7193L35.6015 33.6959C35.6067 33.1177 35.6927 32.5839 35.8593 32.0943C36.026 31.5995 36.2604 31.1698 36.5625 30.8052C36.8646 30.4407 37.2239 30.1594 37.6406 29.9615C38.0625 29.7584 38.5286 29.6568 39.039 29.6568C39.4557 29.6568 39.8307 29.7141 40.164 29.8287C40.4974 29.938 40.7812 30.1151 41.0156 30.3599C41.2552 30.6047 41.4375 30.9224 41.5625 31.313C41.6875 31.6985 41.75 32.1698 41.75 32.7271V38.2662H40.2968V32.7115C40.2968 32.2688 40.2317 31.9146 40.1015 31.649C39.9713 31.3782 39.7812 31.1828 39.5312 31.063C39.2812 30.938 38.9739 30.8755 38.6093 30.8755C38.25 30.8755 37.9218 30.9511 37.625 31.1021C37.3333 31.2532 37.0807 31.4615 36.8672 31.7271C36.6588 31.9927 36.4948 32.2974 36.375 32.6412C36.2604 32.9797 36.2031 33.3391 36.2031 33.7193ZM49.4218 29.813H50.7343V38.0865C50.7343 38.8313 50.5833 39.4667 50.2812 39.9927C49.9791 40.5188 49.5573 40.9172 49.0156 41.188C48.4791 41.4641 47.8593 41.6021 47.1562 41.6021C46.8646 41.6021 46.5208 41.5552 46.125 41.4615C45.7343 41.3729 45.3489 41.2193 44.9687 41.0005C44.5937 40.787 44.2786 40.4979 44.0234 40.1334L44.7812 39.274C45.1354 39.7011 45.5052 39.9979 45.8906 40.1646C46.2812 40.3313 46.6666 40.4146 47.0468 40.4146C47.5052 40.4146 47.901 40.3287 48.2343 40.1568C48.5677 39.9849 48.8255 39.7297 49.0078 39.3912C49.1953 39.0578 49.289 38.6464 49.289 38.1568V31.6724L49.4218 29.813ZM43.6015 34.1334V33.9693C43.6015 33.3235 43.6771 32.7375 43.8281 32.2115C43.9843 31.6802 44.2057 31.2245 44.4922 30.8443C44.7838 30.4641 45.1354 30.1724 45.5468 29.9693C45.9583 29.761 46.4218 29.6568 46.9375 29.6568C47.4687 29.6568 47.9323 29.7505 48.3281 29.938C48.7291 30.1203 49.0677 30.3886 49.3437 30.7427C49.625 31.0917 49.8463 31.5136 50.0078 32.0084C50.1692 32.5032 50.2812 33.063 50.3437 33.688V34.4068C50.2864 35.0266 50.1744 35.5839 50.0078 36.0787C49.8463 36.5735 49.625 36.9953 49.3437 37.3443C49.0677 37.6933 48.7291 37.9615 48.3281 38.149C47.9271 38.3313 47.4583 38.4224 46.9218 38.4224C46.4166 38.4224 45.9583 38.3157 45.5468 38.1021C45.1406 37.8886 44.7916 37.5891 44.5 37.2037C44.2083 36.8183 43.9843 36.3651 43.8281 35.8443C43.6771 35.3183 43.6015 34.7479 43.6015 34.1334ZM45.0468 33.9693V34.1334C45.0468 34.5552 45.0885 34.9511 45.1718 35.3209C45.2604 35.6907 45.3932 36.0162 45.5703 36.2974C45.7526 36.5787 45.9843 36.8 46.2656 36.9615C46.5468 37.1177 46.8828 37.1959 47.2734 37.1959C47.7526 37.1959 48.1484 37.0943 48.4609 36.8912C48.7734 36.688 49.0208 36.4198 49.2031 36.0865C49.3906 35.7532 49.5364 35.3912 49.6406 35.0005V33.1177C49.5833 32.8313 49.4948 32.5552 49.375 32.2896C49.2604 32.0188 49.1093 31.7792 48.9218 31.5709C48.7396 31.3573 48.513 31.188 48.2422 31.063C47.9713 30.938 47.6536 30.8755 47.289 30.8755C46.8932 30.8755 46.5521 30.9589 46.2656 31.1255C45.9843 31.287 45.7526 31.511 45.5703 31.7974C45.3932 32.0787 45.2604 32.4068 45.1718 32.7818C45.0885 33.1516 45.0468 33.5474 45.0468 33.9693ZM60.2812 37.2349C60.625 37.2349 60.9427 37.1646 61.2343 37.024C61.526 36.8834 61.7656 36.6907 61.9531 36.4459C62.1406 36.1959 62.2474 35.912 62.2734 35.5943H63.6484C63.6224 36.0943 63.4531 36.5604 63.1406 36.9927C62.8333 37.4198 62.4297 37.7662 61.9297 38.0318C61.4297 38.2922 60.8802 38.4224 60.2812 38.4224C59.6458 38.4224 59.0911 38.3104 58.6172 38.0865C58.1484 37.8625 57.7578 37.5552 57.4453 37.1646C57.138 36.774 56.9062 36.3261 56.75 35.8209C56.5989 35.3104 56.5234 34.7714 56.5234 34.2037V33.8755C56.5234 33.3078 56.5989 32.7714 56.75 32.2662C56.9062 31.7558 57.138 31.3052 57.4453 30.9146C57.7578 30.524 58.1484 30.2167 58.6172 29.9927C59.0911 29.7688 59.6458 29.6568 60.2812 29.6568C60.9427 29.6568 61.5208 29.7922 62.0156 30.063C62.5104 30.3287 62.8984 30.6933 63.1797 31.1568C63.4661 31.6151 63.6224 32.136 63.6484 32.7193H62.2734C62.2474 32.3703 62.1484 32.0552 61.9765 31.774C61.8099 31.4927 61.5807 31.2688 61.289 31.1021C61.0026 30.9302 60.6666 30.8443 60.2812 30.8443C59.8385 30.8443 59.4661 30.9328 59.164 31.1099C58.8672 31.2818 58.6302 31.5162 58.4531 31.813C58.2812 32.1047 58.1562 32.4302 58.0781 32.7896C58.0052 33.1438 57.9687 33.5058 57.9687 33.8755V34.2037C57.9687 34.5735 58.0052 34.938 58.0781 35.2974C58.151 35.6568 58.2734 35.9823 58.4453 36.274C58.6224 36.5657 58.8593 36.8 59.1562 36.9771C59.4583 37.149 59.8333 37.2349 60.2812 37.2349ZM64.8906 34.1334V33.9537C64.8906 33.3443 64.9791 32.7792 65.1562 32.2584C65.3333 31.7323 65.5885 31.2766 65.9218 30.8912C66.2552 30.5005 66.6588 30.1985 67.1328 29.9849C67.6067 29.7662 68.138 29.6568 68.7265 29.6568C69.3203 29.6568 69.8541 29.7662 70.3281 29.9849C70.8073 30.1985 71.2135 30.5005 71.5468 30.8912C71.8854 31.2766 72.1432 31.7323 72.3203 32.2584C72.4974 32.7792 72.5859 33.3443 72.5859 33.9537V34.1334C72.5859 34.7427 72.4974 35.3078 72.3203 35.8287C72.1432 36.3495 71.8854 36.8052 71.5468 37.1959C71.2135 37.5813 70.8099 37.8834 70.3359 38.1021C69.8672 38.3157 69.3359 38.4224 68.7422 38.4224C68.1484 38.4224 67.6146 38.3157 67.1406 38.1021C66.6666 37.8834 66.2604 37.5813 65.9218 37.1959C65.5885 36.8052 65.3333 36.3495 65.1562 35.8287C64.9791 35.3078 64.8906 34.7427 64.8906 34.1334ZM66.3359 33.9537V34.1334C66.3359 34.5552 66.3854 34.9537 66.4843 35.3287C66.5833 35.6985 66.7317 36.0266 66.9297 36.313C67.1328 36.5995 67.3854 36.8261 67.6875 36.9927C67.9896 37.1542 68.3411 37.2349 68.7422 37.2349C69.138 37.2349 69.4843 37.1542 69.7812 36.9927C70.0833 36.8261 70.3333 36.5995 70.5312 36.313C70.7291 36.0266 70.8776 35.6985 70.9765 35.3287C71.0807 34.9537 71.1328 34.5552 71.1328 34.1334V33.9537C71.1328 33.537 71.0807 33.1438 70.9765 32.774C70.8776 32.399 70.7265 32.0683 70.5234 31.7818C70.3255 31.4901 70.0755 31.261 69.7734 31.0943C69.4765 30.9276 69.1276 30.8443 68.7265 30.8443C68.3307 30.8443 67.9817 30.9276 67.6797 31.0943C67.3828 31.261 67.1328 31.4901 66.9297 31.7818C66.7317 32.0683 66.5833 32.399 66.4843 32.774C66.3854 33.1438 66.3359 33.537 66.3359 33.9537ZM75.8359 31.4927V38.2662H74.3828V29.813H75.7578L75.8359 31.4927ZM75.539 33.7193L74.8672 33.6959C74.8724 33.1177 74.9479 32.5839 75.0937 32.0943C75.2396 31.5995 75.4557 31.1698 75.7422 30.8052C76.0286 30.4407 76.3854 30.1594 76.8125 29.9615C77.2396 29.7584 77.7343 29.6568 78.2968 29.6568C78.6927 29.6568 79.0573 29.7141 79.3906 29.8287C79.7239 29.938 80.013 30.1125 80.2578 30.3521C80.5026 30.5917 80.6927 30.899 80.8281 31.274C80.9635 31.649 81.0312 32.1021 81.0312 32.6334V38.2662H79.5859V32.7037C79.5859 32.261 79.5104 31.9068 79.3593 31.6412C79.2135 31.3755 79.0052 31.1828 78.7343 31.063C78.4635 30.938 78.1458 30.8755 77.7812 30.8755C77.3541 30.8755 76.9974 30.9511 76.7109 31.1021C76.4244 31.2532 76.1953 31.4615 76.0234 31.7271C75.8515 31.9927 75.7265 32.2974 75.6484 32.6412C75.5755 32.9797 75.539 33.3391 75.539 33.7193ZM81.0156 32.9224L80.0468 33.2193C80.0521 32.7558 80.1276 32.3104 80.2734 31.8834C80.4244 31.4563 80.6406 31.0761 80.9218 30.7427C81.2083 30.4094 81.5599 30.1464 81.9765 29.9537C82.3932 29.7558 82.8698 29.6568 83.4062 29.6568C83.8593 29.6568 84.2604 29.7167 84.6093 29.8365C84.9635 29.9563 85.2604 30.1412 85.5 30.3912C85.7448 30.636 85.9297 30.9511 86.0547 31.3365C86.1797 31.7219 86.2422 32.1802 86.2422 32.7115V38.2662H84.789V32.6959C84.789 32.2219 84.7135 31.8547 84.5625 31.5943C84.4166 31.3287 84.2083 31.1438 83.9375 31.0396C83.6718 30.9302 83.3541 30.8755 82.9843 30.8755C82.6666 30.8755 82.3854 30.9302 82.1406 31.0396C81.8958 31.149 81.6901 31.3 81.5234 31.4927C81.3567 31.6802 81.2291 31.8964 81.1406 32.1412C81.0573 32.386 81.0156 32.6464 81.0156 32.9224ZM89.875 31.438V41.5162H88.4218V29.813H89.75L89.875 31.438ZM95.5703 33.9693V34.1334C95.5703 34.7479 95.4974 35.3183 95.3515 35.8443C95.2057 36.3651 94.9922 36.8183 94.7109 37.2037C94.4349 37.5891 94.0937 37.8886 93.6875 38.1021C93.2812 38.3157 92.8151 38.4224 92.289 38.4224C91.7526 38.4224 91.2786 38.3339 90.8672 38.1568C90.4557 37.9797 90.1067 37.7219 89.8203 37.3834C89.5338 37.0448 89.3047 36.6386 89.1328 36.1646C88.9661 35.6907 88.8515 35.1568 88.789 34.563V33.688C88.8515 33.063 88.9687 32.5032 89.1406 32.0084C89.3125 31.5136 89.539 31.0917 89.8203 30.7427C90.1067 30.3886 90.4531 30.1203 90.8593 29.938C91.2656 29.7505 91.7343 29.6568 92.2656 29.6568C92.7968 29.6568 93.2682 29.761 93.6797 29.9693C94.0911 30.1724 94.4375 30.4641 94.7187 30.8443C95 31.2245 95.2109 31.6802 95.3515 32.2115C95.4974 32.7375 95.5703 33.3235 95.5703 33.9693ZM94.1172 34.1334V33.9693C94.1172 33.5474 94.0729 33.1516 93.9843 32.7818C93.8958 32.4068 93.7578 32.0787 93.5703 31.7974C93.388 31.511 93.1536 31.287 92.8672 31.1255C92.5807 30.9589 92.2396 30.8755 91.8437 30.8755C91.4791 30.8755 91.1614 30.938 90.8906 31.063C90.625 31.188 90.3984 31.3573 90.2109 31.5709C90.0234 31.7792 89.8698 32.0188 89.75 32.2896C89.6354 32.5552 89.5494 32.8313 89.4922 33.1177V35.1412C89.5963 35.5058 89.7422 35.8495 89.9297 36.1724C90.1172 36.4901 90.3672 36.7479 90.6797 36.9459C90.9922 37.1386 91.3854 37.2349 91.8593 37.2349C92.25 37.2349 92.5859 37.1542 92.8672 36.9927C93.1536 36.8261 93.388 36.5995 93.5703 36.313C93.7578 36.0266 93.8958 35.6985 93.9843 35.3287C94.0729 34.9537 94.1172 34.5552 94.1172 34.1334ZM102.398 36.8209V32.4693C102.398 32.136 102.331 31.8469 102.195 31.6021C102.065 31.3521 101.867 31.1594 101.602 31.024C101.336 30.8886 101.008 30.8209 100.617 30.8209C100.253 30.8209 99.9323 30.8834 99.6562 31.0084C99.3854 31.1334 99.1718 31.2974 99.0156 31.5005C98.8646 31.7037 98.789 31.9224 98.789 32.1568H97.3437C97.3437 31.8547 97.4218 31.5552 97.5781 31.2584C97.7343 30.9615 97.9583 30.6933 98.25 30.4537C98.5468 30.2089 98.901 30.0162 99.3125 29.8755C99.7291 29.7297 100.193 29.6568 100.703 29.6568C101.318 29.6568 101.859 29.761 102.328 29.9693C102.802 30.1776 103.172 30.4927 103.437 30.9146C103.708 31.3313 103.844 31.8547 103.844 32.4849V36.4224C103.844 36.7037 103.867 37.0032 103.914 37.3209C103.966 37.6386 104.042 37.912 104.141 38.1412V38.2662H102.633C102.56 38.0995 102.503 37.8782 102.461 37.6021C102.419 37.3209 102.398 37.0604 102.398 36.8209ZM102.648 33.1412L102.664 34.1568H101.203C100.792 34.1568 100.424 34.1907 100.102 34.2584C99.7786 34.3209 99.5078 34.4172 99.289 34.5474C99.0703 34.6776 98.9036 34.8417 98.789 35.0396C98.6744 35.2323 98.6172 35.4589 98.6172 35.7193C98.6172 35.9849 98.6771 36.2271 98.7968 36.4459C98.9166 36.6646 99.0963 36.8391 99.3359 36.9693C99.5807 37.0943 99.8802 37.1568 100.234 37.1568C100.677 37.1568 101.068 37.063 101.406 36.8755C101.745 36.688 102.013 36.4589 102.211 36.188C102.414 35.9172 102.523 35.6542 102.539 35.399L103.156 36.0943C103.12 36.313 103.021 36.5552 102.859 36.8209C102.698 37.0865 102.482 37.3417 102.211 37.5865C101.945 37.8261 101.628 38.0266 101.258 38.188C100.893 38.3443 100.482 38.4224 100.023 38.4224C99.4505 38.4224 98.9479 38.3104 98.5156 38.0865C98.0885 37.8625 97.7552 37.563 97.5156 37.188C97.2812 36.8078 97.164 36.3834 97.164 35.9146C97.164 35.4615 97.2526 35.063 97.4297 34.7193C97.6067 34.3703 97.8619 34.0813 98.1953 33.8521C98.5286 33.6177 98.9297 33.4407 99.3984 33.3209C99.8672 33.2011 100.391 33.1412 100.969 33.1412H102.648ZM107.562 31.6177V38.2662H106.117V29.813H107.484L107.562 31.6177ZM107.219 33.7193L106.617 33.6959C106.622 33.1177 106.708 32.5839 106.875 32.0943C107.042 31.5995 107.276 31.1698 107.578 30.8052C107.88 30.4407 108.24 30.1594 108.656 29.9615C109.078 29.7584 109.544 29.6568 110.055 29.6568C110.471 29.6568 110.846 29.7141 111.18 29.8287C111.513 29.938 111.797 30.1151 112.031 30.3599C112.271 30.6047 112.453 30.9224 112.578 31.313C112.703 31.6985 112.766 32.1698 112.766 32.7271V38.2662H111.312V32.7115C111.312 32.2688 111.247 31.9146 111.117 31.649C110.987 31.3782 110.797 31.1828 110.547 31.063C110.297 30.938 109.99 30.8755 109.625 30.8755C109.266 30.8755 108.937 30.9511 108.641 31.1021C108.349 31.2532 108.096 31.4615 107.883 31.7271C107.674 31.9927 107.51 32.2974 107.391 32.6412C107.276 32.9797 107.219 33.3391 107.219 33.7193ZM116.531 29.813V38.2662H115.078V29.813H116.531ZM114.969 27.5709C114.969 27.3365 115.039 27.1386 115.18 26.9771C115.325 26.8157 115.539 26.7349 115.82 26.7349C116.096 26.7349 116.307 26.8157 116.453 26.9771C116.604 27.1386 116.68 27.3365 116.68 27.5709C116.68 27.7948 116.604 27.9875 116.453 28.149C116.307 28.3052 116.096 28.3834 115.82 28.3834C115.539 28.3834 115.325 28.3052 115.18 28.149C115.039 27.9875 114.969 27.7948 114.969 27.5709ZM122.359 38.4224C121.771 38.4224 121.237 38.3235 120.758 38.1255C120.284 37.9224 119.875 37.6386 119.531 37.274C119.193 36.9094 118.932 36.4771 118.75 35.9771C118.568 35.4771 118.477 34.9302 118.477 34.3365V34.0084C118.477 33.3209 118.578 32.7089 118.781 32.1724C118.984 31.6308 119.26 31.1724 119.609 30.7974C119.958 30.4224 120.354 30.1386 120.797 29.9459C121.24 29.7532 121.698 29.6568 122.172 29.6568C122.776 29.6568 123.297 29.761 123.734 29.9693C124.177 30.1776 124.539 30.4693 124.82 30.8443C125.102 31.2141 125.31 31.6516 125.445 32.1568C125.581 32.6568 125.648 33.2037 125.648 33.7974V34.4459H119.336V33.2662H124.203V33.1568C124.182 32.7818 124.104 32.4172 123.969 32.063C123.839 31.7089 123.63 31.4172 123.344 31.188C123.057 30.9589 122.667 30.8443 122.172 30.8443C121.844 30.8443 121.542 30.9146 121.266 31.0552C120.99 31.1907 120.753 31.3938 120.555 31.6646C120.357 31.9354 120.203 32.2662 120.094 32.6568C119.984 33.0474 119.93 33.4979 119.93 34.0084V34.3365C119.93 34.7375 119.984 35.1151 120.094 35.4693C120.208 35.8183 120.372 36.1255 120.586 36.3912C120.805 36.6568 121.068 36.8651 121.375 37.0162C121.687 37.1672 122.042 37.2427 122.437 37.2427C122.948 37.2427 123.38 37.1386 123.734 36.9302C124.089 36.7219 124.398 36.4433 124.664 36.0943L125.539 36.7896C125.357 37.0657 125.125 37.3287 124.844 37.5787C124.562 37.8287 124.216 38.0318 123.805 38.188C123.398 38.3443 122.917 38.4224 122.359 38.4224ZM132.258 36.024C132.258 35.8157 132.211 35.6229 132.117 35.4459C132.029 35.2636 131.844 35.0995 131.562 34.9537C131.286 34.8026 130.87 34.6724 130.312 34.563C129.844 34.4641 129.419 34.3469 129.039 34.2115C128.664 34.0761 128.344 33.912 128.078 33.7193C127.818 33.5266 127.617 33.3 127.477 33.0396C127.336 32.7792 127.266 32.4745 127.266 32.1255C127.266 31.7922 127.339 31.4771 127.484 31.1802C127.635 30.8834 127.846 30.6203 128.117 30.3912C128.393 30.162 128.724 29.9823 129.109 29.8521C129.495 29.7219 129.924 29.6568 130.398 29.6568C131.075 29.6568 131.654 29.7766 132.133 30.0162C132.612 30.2558 132.979 30.5761 133.234 30.9771C133.49 31.3729 133.617 31.813 133.617 32.2974H132.172C132.172 32.063 132.102 31.8365 131.961 31.6177C131.825 31.3938 131.625 31.2089 131.359 31.063C131.099 30.9172 130.779 30.8443 130.398 30.8443C129.997 30.8443 129.672 30.9068 129.422 31.0318C129.177 31.1516 128.997 31.3052 128.883 31.4927C128.773 31.6802 128.719 31.8782 128.719 32.0865C128.719 32.2427 128.745 32.3834 128.797 32.5084C128.854 32.6282 128.953 32.7401 129.094 32.8443C129.234 32.9433 129.432 33.037 129.687 33.1255C129.943 33.2141 130.268 33.3026 130.664 33.3912C131.357 33.5474 131.927 33.7349 132.375 33.9537C132.823 34.1724 133.156 34.4407 133.375 34.7584C133.594 35.0761 133.703 35.4615 133.703 35.9146C133.703 36.2844 133.625 36.6229 133.469 36.9302C133.318 37.2375 133.096 37.5032 132.805 37.7271C132.518 37.9459 132.174 38.1177 131.773 38.2427C131.378 38.3625 130.932 38.4224 130.437 38.4224C129.693 38.4224 129.062 38.2896 128.547 38.024C128.031 37.7584 127.641 37.4146 127.375 36.9927C127.109 36.5709 126.977 36.1255 126.977 35.6568H128.43C128.45 36.0526 128.565 36.3677 128.773 36.6021C128.982 36.8313 129.237 36.9953 129.539 37.0943C129.841 37.188 130.141 37.2349 130.437 37.2349C130.833 37.2349 131.164 37.1828 131.43 37.0787C131.7 36.9745 131.906 36.8313 132.047 36.649C132.187 36.4667 132.258 36.2584 132.258 36.024Z" fill="#475569"/>
<path d="M198.763 15.304C199.714 15.3048 200.655 15.5114 201.523 15.9102C202.392 16.309 203.168 16.891 203.803 17.6182L205.788 15.7823C204.517 14.3326 202.85 13.3095 201.003 12.8466C199.157 12.3836 197.217 12.5023 195.437 13.187C193.658 13.8718 192.12 15.0908 191.026 16.6851C189.932 18.2794 189.332 20.1749 189.304 22.1243C189.277 24.0736 189.822 25.9863 190.87 27.6128C191.918 29.2392 193.42 30.5039 195.18 31.2418C196.939 31.9796 198.875 32.1565 200.733 31.7491C202.592 31.3418 204.288 30.3693 205.6 28.9584L203.66 27.0684C202.887 27.8975 201.925 28.5172 200.862 28.8722C199.798 29.2271 198.665 29.3063 197.564 29.1024C196.464 28.8987 195.429 28.4183 194.554 27.7043C193.678 26.9904 192.989 26.065 192.548 25.011C192.106 23.957 191.926 22.8072 192.023 21.6644C192.121 20.5216 192.493 19.4213 193.107 18.4621C193.72 17.5028 194.556 16.7144 195.539 16.1674C196.522 15.6203 197.622 15.3316 198.741 15.3271L198.763 15.304Z" fill="#64748B"/>
<path d="M189.788 13.01L187.829 11.1146C186.298 12.5765 185.084 14.3142 184.255 16.228C183.427 18.1417 183 20.1937 183 22.2661C183 24.3386 183.427 26.3906 184.255 28.3043C185.084 30.218 186.298 31.9557 187.829 33.4176L189.788 31.5222C188.512 30.3119 187.499 28.8705 186.807 27.2816C186.116 25.6928 185.76 23.988 185.76 22.2661C185.76 20.5442 186.116 18.8395 186.807 17.2506C187.499 15.6617 188.512 14.2204 189.788 13.01Z" fill="#64748B"/>
<path d="M208.212 9.40572C205.541 7.36204 202.314 6.26202 199 6.26619V9.01814C201.734 9.01552 204.398 9.91957 206.606 11.5995L208.212 9.40572Z" fill="#64748B"/>
<path d="M199 35.5513V38.2661C202.1 38.2696 205.133 37.366 207.728 35.666L206.203 33.4177C204.059 34.8135 201.557 35.5548 199 35.5513Z" fill="#64748B"/>
<path d="M199 32.1982C196.9 32.1968 194.852 31.5689 193.132 30.3995C191.412 29.2301 190.104 27.5756 189.384 25.6601L186.879 26.7899C187.822 29.1688 189.485 31.2143 191.649 32.657C193.812 34.0998 196.375 34.8721 199 34.8722V32.1982Z" fill="#64748B"/>
<path d="M189.068 21.7813C189.231 19.2308 190.348 16.8382 192.192 15.0891C194.036 13.3401 196.47 12.3655 198.999 12.363V9.6601C195.76 9.66 192.645 10.9183 190.299 13.1745C187.952 15.4308 186.554 18.5123 186.393 21.7813H189.068Z" fill="#64748B"/>
<path d="M270.636 28.0522C269.759 28.0562 268.893 27.8436 268.11 27.4321C267.327 27.0206 266.648 26.4218 266.131 25.6849L262.523 27.8405C262.66 28.0052 262.823 28.145 263.004 28.2543L269.424 32.1037C269.799 32.3031 270.214 32.407 270.636 32.407C271.057 32.407 271.472 32.3031 271.848 32.1037L278.267 28.2543C278.449 28.145 278.611 28.0052 278.748 27.8405L275.15 25.6464C274.635 26.3918 273.958 26.9988 273.173 27.4172C272.388 27.8355 271.518 28.0533 270.636 28.0522Z" fill="#64748B"/>
<path d="M264.986 22.2431C264.99 20.8746 265.522 19.5551 266.48 18.537C267.439 17.519 268.758 16.8736 270.184 16.7243V12.576C269.968 12.6189 269.76 12.6934 269.567 12.7967L262.874 16.476C262.511 16.7081 262.208 17.0174 261.991 17.3796C261.773 17.7419 261.647 18.1472 261.621 18.5639V25.9223C261.624 26.1347 261.66 26.3455 261.727 26.5478L265.488 24.4783C265.159 23.7748 264.988 23.0134 264.986 22.2431Z" fill="#64748B"/>
<path d="M278.462 16.4734L272.122 12.7966C271.939 12.6933 271.742 12.6189 271.537 12.576V16.7124C272.398 16.8106 273.225 17.1108 273.95 17.5891C274.675 18.0674 275.278 18.7102 275.711 19.4659C276.144 20.2215 276.394 21.0689 276.442 21.9397C276.49 22.8106 276.334 23.6805 275.986 24.4796L279.549 26.5478C279.613 26.3455 279.647 26.1349 279.65 25.9228V18.5692C279.627 18.1512 279.507 17.7443 279.301 17.3805C279.095 17.0168 278.808 16.7063 278.462 16.4734Z" fill="#64748B"/>
<path d="M283.08 12.7884L272.613 6.73504C271.999 6.42671 271.322 6.26617 270.635 6.26617C269.948 6.26617 269.271 6.42671 268.657 6.73504L258.19 12.7884C257.616 13.1632 257.137 13.668 256.794 14.2621C256.45 14.8561 256.251 15.5228 256.212 16.2081V28.3147C256.25 29.0015 256.449 29.6698 256.793 30.2655C257.136 30.8612 257.615 31.3677 258.19 31.744L268.657 37.7974C269.271 38.1057 269.948 38.2662 270.635 38.2662C271.322 38.2662 271.999 38.1057 272.613 37.7974L283.08 31.744C283.655 31.3677 284.134 30.8612 284.477 30.2655C284.821 29.6698 285.02 29.0015 285.058 28.3147V16.2081C285.019 15.5228 284.82 14.8561 284.476 14.2621C284.132 13.668 283.654 13.1632 283.08 12.7884ZM281.736 26.9222C281.705 27.4498 281.551 27.9628 281.287 28.4202C281.022 28.8776 280.654 29.2664 280.212 29.5557L272.149 34.2165C271.678 34.4546 271.158 34.5786 270.63 34.5786C270.103 34.5786 269.582 34.4546 269.111 34.2165L261.058 29.5557C260.616 29.2664 260.248 28.8776 259.983 28.4202C259.719 27.9628 259.565 27.4498 259.534 26.9222V17.6102C259.565 17.0825 259.719 16.5695 259.983 16.1122C260.248 15.6548 260.616 15.2659 261.058 14.9766L269.102 10.3159C269.573 10.0778 270.093 9.9537 270.621 9.9537C271.148 9.9537 271.669 10.0778 272.14 10.3159L280.203 14.9766C280.646 15.2648 281.016 15.6533 281.282 16.1107C281.549 16.5681 281.704 17.0817 281.736 17.6102V26.9222Z" fill="#64748B"/>
<path d="M266.58 22.2662C266.58 23.0238 266.818 23.7645 267.263 24.3945C267.709 25.0246 268.343 25.5156 269.084 25.8055C269.825 26.0955 270.641 26.1713 271.428 26.0236C272.214 25.8757 272.937 25.5109 273.504 24.9751C274.072 24.4393 274.458 23.7567 274.615 23.0136C274.771 22.2704 274.691 21.5001 274.384 20.8001C274.077 20.1001 273.557 19.5018 272.89 19.0808C272.223 18.6599 271.438 18.4352 270.636 18.4352C269.56 18.4352 268.529 18.8388 267.768 19.5573C267.007 20.2757 266.58 21.2501 266.58 22.2662Z" fill="#64748B"/>
<path d="M338.025 12.3334L333.057 17.3009L338.025 22.2684L342.992 17.3009L338.025 12.3334Z" fill="#64748B"/>
<path d="M343.001 17.2987L338.032 12.3293C339.348 13.6467 340.088 15.4331 340.088 17.2959C340.088 19.1586 339.348 20.9451 338.032 22.2625L333.062 27.2263L338.032 32.1957L343.001 27.2263L347.97 22.2625L343.001 17.2987Z" fill="#CBD5E1"/>
<path d="M360.085 32.2065L365.052 27.239L360.085 22.2715L355.117 27.239L360.085 32.2065Z" fill="#64748B"/>
<path d="M355.118 27.2374L360.087 32.2013C358.77 30.8839 358.031 29.0974 358.031 27.2347C358.031 25.3719 358.77 23.5855 360.087 22.2681L365.057 17.2987L360.087 12.3293L355.118 17.2987L350.154 22.2681L355.118 27.2374Z" fill="#CBD5E1"/>
<path d="M339.124 33.2987L344.092 38.2662L349.059 33.2987L344.092 28.3311L339.124 33.2987Z" fill="#64748B"/>
<path d="M344.092 28.3237L339.123 33.2931C340.44 31.9762 342.226 31.2364 344.089 31.2364C345.952 31.2364 347.738 31.9762 349.056 33.2931L354.02 38.2626L358.989 33.2931L354.02 28.3237L349.056 23.3599L344.092 28.3237Z" fill="#CBD5E1"/>
<path d="M358.998 11.2337L354.031 6.26617L349.063 11.2337L354.031 16.2012L358.998 11.2337Z" fill="#64748B"/>
<path d="M354.031 16.2067L358.995 11.2374C357.677 12.5543 355.891 13.2941 354.028 13.2941C352.165 13.2941 350.379 12.5543 349.061 11.2374L344.092 6.26794L339.123 11.2374L344.092 16.2067L349.061 21.1761L354.031 16.2067Z" fill="#CBD5E1"/>
<path d="M426.978 9.37766L432.296 12.4483L434.992 10.896L426.978 6.26617L413.593 14.0006L416.276 15.553L426.978 9.37766Z" fill="#64748B"/>
<path d="M437.677 12.4483L426.98 18.6236L421.663 15.553L418.974 17.1053L426.98 21.7283L440.373 14.0006L437.677 12.4483Z" fill="#64748B"/>
<path d="M415.746 22.8381L413.057 21.2858V30.5317L426.442 38.2662V35.1615L415.746 28.9794V22.8381Z" fill="#64748B"/>
<path d="M413.057 18.181L423.753 24.3563V30.4975L426.442 32.0567V22.8039L413.057 15.0763V18.181Z" fill="#64748B"/>
<path d="M435.533 21.2857V18.181L427.519 22.804V38.2661L430.208 36.7138V24.3563L435.533 21.2857Z" fill="#64748B"/>
<path d="M438.214 16.6286V28.9792L432.897 32.0567V35.1614L440.911 30.5316V15.0763L438.214 16.6286Z" fill="#64748B"/>
<path d="M499.3 19.2584L494.109 16.2402L488.911 19.2584V25.2809L494.109 28.2922L499.3 25.2809V19.2584ZM498.182 24.6332L494.109 26.9898L490.035 24.6332V19.9061L494.109 17.5426L498.182 19.9061V24.6332Z" fill="#64748B"/>
<path d="M510.521 19.2515L505.53 16.2402L500.547 19.2515V25.274L505.53 28.2922L510.521 25.274V19.2515Z" fill="#64748B"/>
<path d="M516.96 16.2402L511.768 19.2584V25.2809L516.96 28.2922L522.158 25.2809V19.2584L516.96 16.2402ZM521.034 24.6332L516.96 26.9898L512.886 24.6332V19.9061L516.96 17.5426L521.034 19.9061V24.6332Z" fill="#64748B"/>
<path d="M494.73 29.2324V35.2549L499.935 38.2662L505.119 35.2549V29.2324L499.935 26.2142L494.73 29.2324ZM503.982 34.6279L499.935 36.9638L495.825 34.6279V29.8801L499.935 27.5166L503.996 29.8801L503.982 34.6279Z" fill="#64748B"/>
<path d="M505.95 29.2324V35.2549L511.141 38.2662L516.339 35.2549V29.2324L511.141 26.2142L505.95 29.2324ZM515.214 34.6279L511.141 36.9845L507.074 34.6279V29.8801L511.141 27.5166L515.214 29.8801V34.6279Z" fill="#64748B"/>
<path d="M505.119 15.3068V9.26366L499.942 6.26617L494.73 9.26366V15.2862L499.942 18.3181L505.119 15.3068ZM495.827 9.95274L499.942 7.56853L503.995 9.95274V14.6798L499.942 17.0158L495.827 14.6591V9.95274Z" fill="#64748B"/>
<path d="M516.339 15.3275V9.28432L511.141 6.26617L505.95 9.28432V15.3068L511.141 18.3181L516.339 15.3275ZM507.074 9.9734L511.141 7.60988L515.214 9.9734V14.7005L511.141 17.0571L507.074 14.7005V9.9734Z" fill="#64748B"/>
</svg>
